<svg width="18" height="18" viewBox="0 0 18 18" fill="none" xmlns="http://www.w3.org/2000/svg">
<path d="M0.147052 0.303788L0.21967 0.21967C0.485936 -0.0465966 0.9026 -0.0708027 1.19621 0.147052L1.28033 0.21967L8.881 7.821L16.4831 0.21967C16.776 -0.0732233 17.2509 -0.0732233 17.5438 0.21967C17.8367 0.512563 17.8367 0.987437 17.5438 1.28033L9.942 8.881L17.5438 16.4831C17.8101 16.7494 17.8343 17.1661 17.6164 17.4597L17.5438 17.5438C17.2775 17.8101 16.8609 17.8343 16.5672 17.6164L16.4831 17.5438L8.881 9.942L1.28033 17.5438C0.987437 17.8367 0.512563 17.8367 0.21967 17.5438C-0.0732233 17.2509 -0.0732233 16.776 0.21967 16.4831L7.821 8.881L0.21967 1.28033C-0.0465966 1.01406 -0.0708027 0.5974 0.147052 0.303788L0.21967 0.21967L0.147052 0.303788Z" fill="white"/>
</svg>
