<svg width="29" height="29" viewBox="0 0 29 29" fill="none" xmlns="http://www.w3.org/2000/svg">
<path fill-rule="evenodd" clip-rule="evenodd" d="M14.5 0.5C22.3701 0.5 28.75 6.87994 28.75 14.75C28.75 22.6201 22.3701 29 14.5 29C6.62994 29 0.25 22.6201 0.25 14.75C0.25 6.87994 6.62994 0.5 14.5 0.5ZM14.5 2C7.45837 2 1.75 7.70837 1.75 14.75C1.75 21.7916 7.45837 27.5 14.5 27.5C21.5416 27.5 27.25 21.7916 27.25 14.75C27.25 7.70837 21.5416 2 14.5 2ZM15.0318 3.68674L14.9067 3.68C14.5341 3.68325 14.1895 3.89481 14.0204 4.23473L9.20482 13.9185L9.15892 14.026C8.98919 14.497 9.19576 15.0309 9.65495 15.2592L13.978 17.205L13.1013 24.7132L13.0945 24.8298C13.0942 25.3305 13.4692 25.7629 13.9786 25.8224C14.3975 25.8713 14.8021 25.6521 14.9899 25.2745L19.8055 15.5918L19.8514 15.4844C20.0212 15.0134 19.8146 14.4795 19.3554 14.2511L15.032 12.305L15.9091 4.79596L15.9159 4.67935C15.9162 4.17867 15.5412 3.74621 15.0318 3.68674Z" fill="white"/>
</svg>
