<svg width="17" height="17" viewBox="0 0 17 17" fill="none" xmlns="http://www.w3.org/2000/svg">
<path fill-rule="evenodd" clip-rule="evenodd" d="M15.2504 3.70819C16.1331 4.09406 16.75 4.97499 16.75 6V11.25C16.75 14.0114 14.5114 16.25 11.75 16.25H6.5C5.47499 16.25 4.59406 15.6331 4.20819 14.7504L11.25 14.75C13.3922 14.75 15.1411 13.066 15.2451 10.9496L15.25 10.75L15.2504 3.70819ZM10.75 0C12.1307 0 13.25 1.11929 13.25 2.5V10.25C13.25 11.6307 12.1307 12.75 10.75 12.75H3C1.61929 12.75 0.5 11.6307 0.5 10.25V2.5C0.5 1.11929 1.61929 0 3 0H10.75Z" fill="white"/>
</svg>
