<svg width="25" height="24" viewBox="0 0 25 24" fill="none" xmlns="http://www.w3.org/2000/svg">
<path fill-rule="evenodd" clip-rule="evenodd" d="M21.0396 4.76266C21.3252 4.52573 21.4501 3.95328 20.3492 2.92661C15.6032 -1.49911 7.57901 -0.722367 3.15329 4.02364L2 5.43608V2.76513L1.99315 2.66336C1.94349 2.29729 1.6297 2.01513 1.25 2.01513C0.835786 2.01513 0.5 2.35092 0.5 2.76513V7.28961C0.5 7.8419 0.947715 8.28961 1.5 8.28961H6.51861L6.62038 8.28277C6.98646 8.2331 7.26861 7.91931 7.26861 7.53961L7.26177 7.43784C7.2121 7.07177 6.89831 6.78961 6.51861 6.78961L2.837 6.78908L3.21419 6.32052L4.28317 5.00897L4.49075 4.7929C8.34195 0.899718 15.26 0.231845 19.3262 4.02364L19.6052 4.27685C20.3749 4.95319 20.6544 4.99009 20.9059 4.85199L20.9998 4.7929L21.0396 4.76266ZM24.2372 20.5245V16C24.2372 15.4477 23.7895 15 23.2372 15H18.2186L18.1169 15.0068C17.7508 15.0565 17.4686 15.3703 17.4686 15.75L17.4755 15.8518C17.5251 16.2178 17.8389 16.5 18.2186 16.5L21.9002 16.5005L21.523 16.9691L20.4541 18.2806L20.2465 18.4967C16.3953 22.3899 9.47728 23.0578 5.41107 19.266L5.13202 19.0128C4.36231 18.3364 4.08287 18.2995 3.83138 18.4376L3.73748 18.4967L3.69764 18.527C3.41207 18.7639 3.28711 19.3363 4.38808 20.363C9.13408 24.7887 17.1582 24.012 21.584 19.266L22.7372 17.8535V20.5245L22.7441 20.6263C22.7938 20.9923 23.1075 21.2745 23.4872 21.2745C23.9015 21.2745 24.2372 20.9387 24.2372 20.5245Z" fill="white"/>
</svg>
