<svg width="34" height="30" viewBox="0 0 34 30" fill="none" xmlns="http://www.w3.org/2000/svg">
<path fill-rule="evenodd" clip-rule="evenodd" d="M19.3738 2.10935C11.9783 -0.582366 3.80107 3.23075 1.10935 10.6262C-1.58237 18.0216 2.23075 26.1989 9.62618 28.8906C17.0216 31.5823 25.1989 27.7692 27.8906 20.3738C28.5388 18.5927 28.8216 16.7323 28.7399 14.8781C28.6576 13.0082 28.2052 11.1726 27.4149 9.47766C26.6245 7.78277 25.5091 6.25631 24.1296 4.99124C23.8243 4.71128 23.3499 4.73181 23.0699 5.0371C22.79 5.34238 22.8105 5.81681 23.1158 6.09677C24.3497 7.22833 25.3479 8.59438 26.0554 10.1116C26.7629 11.6288 27.1677 13.2715 27.2414 14.9441C27.3144 16.6022 27.0616 18.2658 26.4811 19.8607C24.0727 26.4777 16.7562 29.8894 10.1392 27.4811C3.52225 25.0727 0.110512 17.7562 2.51889 11.1392C4.92727 4.52225 12.2438 1.11051 18.8607 3.51889C19.25 3.66056 19.6803 3.45987 19.822 3.07064C19.9637 2.6814 19.763 2.25102 19.3738 2.10935ZM19.4326 19.9957C19.0845 19.7712 18.6203 19.8714 18.3958 20.2194C17.6984 21.3007 16.4317 21.8543 14.5 21.8543C12.5599 21.8543 11.2458 21.2941 10.473 20.1947C10.2348 19.8558 9.76704 19.7742 9.42816 20.0124C9.08928 20.2506 9.00766 20.7184 9.24584 21.0572C10.3272 22.5957 12.1067 23.3543 14.5 23.3543C16.9016 23.3543 18.6523 22.5891 19.6563 21.0325C19.8808 20.6844 19.7806 20.2202 19.4326 19.9957ZM9.49997 13C10.4665 13 11.25 13.7835 11.25 14.75C11.25 15.7165 10.4665 16.5 9.49997 16.5C8.53347 16.5 7.74997 15.7165 7.74997 14.75C7.74997 13.7835 8.53347 13 9.49997 13ZM21.25 14.75C21.25 13.7835 20.4665 13 19.5 13C18.5335 13 17.75 13.7835 17.75 14.75C17.75 15.7165 18.5335 16.5 19.5 16.5C20.4665 16.5 21.25 15.7165 21.25 14.75Z" fill="white"/>
<path fill-rule="evenodd" clip-rule="evenodd" d="M25.75 16C30.1683 16 33.75 12.4183 33.75 8C33.75 3.58172 30.1683 0 25.75 0C21.3317 0 17.75 3.58172 17.75 8C17.75 12.4183 21.3317 16 25.75 16Z" fill="#3897F0"/>
</svg>
