<svg width="20" height="14" viewBox="0 0 20 14" fill="none" xmlns="http://www.w3.org/2000/svg">
<path fill-rule="evenodd" clip-rule="evenodd" d="M12.5 0C13.3284 0 14 0.671573 14 1.5V12.5C14 13.3284 13.3284 14 12.5 14H1.5C0.671573 14 0 13.3284 0 12.5V1.5C0 0.671573 0.671573 0 1.5 0H12.5ZM19.8862 2.18799C19.9609 2.33101 20 2.48999 20 2.65137V11.1073C20 11.6596 19.5523 12.1073 19 12.1073C18.8388 12.1073 18.68 12.0684 18.5372 11.9938L16 10.6691V3.09164L18.5366 1.76522C19.026 1.5093 19.6302 1.69858 19.8862 2.18799ZM7 2C4.23858 2 2 4.23858 2 7C2 9.76142 4.23858 12 7 12C9.76142 12 12 9.76142 12 7C12 4.23858 9.76142 2 7 2ZM7 4C8.65685 4 10 5.34315 10 7C10 8.65685 8.65685 10 7 10C5.34315 10 4 8.65685 4 7C4 5.34315 5.34315 4 7 4Z" fill="#FEFFFE"/>
</svg>
